<svg xmlns="http://www.w3.org/2000/svg" width="597.36" height="565.931" viewBox="0 0 597.36 565.931">
  <g id="_2029428" data-name="2029428" transform="translate(-0.5 1276)">
    <path id="Path_1" data-name="Path 1" d="M295.655-1274.315c-.98,1.419-1.774,1.907-4.622,2.927-9.664,3.327-20.029,12.686-25.678,23.153-2.708,5.012-3.361,7.052-4.575,13.927-1.681,9.359-1.821,11.4-1.541,21.956.28,10.157.28,10.2-.887,12.863-1.727,3.859-1.914,5.5-1.074,8.915,1.821,7.452,7.143,15.569,15.36,23.331,4.622,4.391,6.069,6.077,7.33,8.561l1.587,3.06.14,10.823c.187,12.109-.093,14.061-2.521,18.718-4.529,8.561-17.321,14.815-35.9,17.52-2.568.355-9.057.887-14.473,1.153-7,.311-10.691.71-12.839,1.286-9.1,2.528-19.142,11.577-24.837,22.4-3.875,7.319-4.9,12.774-5.369,28.166a109.963,109.963,0,0,0,1.821,25.948,97.862,97.862,0,0,1,1.167,13.75c.233,8.827-.093,12.02-2.148,21.069-1.587,7.141-1.961,11.621-2.334,28.166-.42,17.387-.514,18.052-3.315,21.645-3.081,3.992-16.247,11.355-42.952,24.041-7.563,3.593-15.173,7.008-16.947,7.585-1.727.532-7.937,2.04-13.773,3.282a114.925,114.925,0,0,0-12.932,3.327c-2.381,1.02-9.2,2-14.053,2-5.929,0-13.726-2.129-29.366-7.984-10.224-3.814-14.8-5.145-19.749-5.589a14.241,14.241,0,0,1-4.062-.887c-1.354-.8-13.819-3.726-15.874-3.726-2.288,0-4.529,2.085-5.509,5.145a25.1,25.1,0,0,1-2.381,4.835C.92-909.183.5-907.453.5-901.421c.047,5.944,1.074,11.177,3.782,19.383a71.5,71.5,0,0,1,2.008,7.5c.747,4.391,2.848,7.1,6.723,8.694,5.136,2.173,29.039,2.972,38.377,1.286a74.4,74.4,0,0,0,19.749-6.476c2.988-1.464,5.556-2.661,5.789-2.661.187,0,.373.931.373,2.085,0,3.77,1.354,16.811,1.867,18.1a11.937,11.937,0,0,0,2.1,2.972,85.022,85.022,0,0,1,5.556,7.407c4.3,6.165,7.423,9.226,11.345,11.044,2.148,1.02,2.661,1.552,4.108,4.125a22.112,22.112,0,0,1,1.961,4.524c.327,1.375,1.774,2.617,12.512,10.823,20.449,15.524,28.9,21.246,38.1,25.815a66.053,66.053,0,0,0,20.122,6.52c8.684,1.508,12.325,2.4,17.508,4.347a51.7,51.7,0,0,0,8.637,2.262c8.777,1.375,9.991,1.641,13.212,3.1a18.123,18.123,0,0,1,4.389,2.617c1.12,1.153,1.12,1.153.28,2.927-.794,1.641-.98,1.774-2.755,1.774-2.334,0-10.645-.931-21.756-2.484-15.734-2.173-19.749-1.2-28.806,7.052-8.5,7.807-13.866,14.593-15.5,19.561-1.261,3.9-1.541,7.673-1.074,14.282.42,5.456.56,6.077,2.194,9.226,3.735,7.141,7.423,7.319,20.776.931,9.384-4.48,9.944-4.7,14.94-5.1a38.762,38.762,0,0,0,7-1.153c2.661-.8,3.081-.8,22.643-.577,6.116.089,11.2-.222,22.41-1.331,7.983-.754,15.593-1.6,16.947-1.863,1.4-.266,7.283-2.218,13.072-4.391,13.306-4.879,13.072-4.835,26-7.762,9.431-2.173,10.878-2.617,12.139-3.726a7.864,7.864,0,0,1,5.089-2.262,15.009,15.009,0,0,1,7.563,2.794,8.272,8.272,0,0,0,3.782,1.819,27.14,27.14,0,0,1,5.136,1.774,40.626,40.626,0,0,0,11.345,3.327c5.556.843,29.6,2.617,52.056,3.815,6.956.355,13.306.843,14.146,1.065a26.629,26.629,0,0,1,4.435,2.129,10.806,10.806,0,0,0,5.976,1.819c3.455.222,9.337-.532,10.691-1.331,1.261-.754,2.334-3.5,2.661-6.786.373-3.815-.7-6.919-3.735-10.911a72.3,72.3,0,0,1-4.762-7.407,39.369,39.369,0,0,0-7-9.137c-2.614-2.794-4.9-5.234-5.089-5.5-.7-1.109,2.661-2.4,9.944-3.859,9.618-1.907,13.866-3.016,17.508-4.613,2.754-1.153,26.752-16.1,29.926-18.585.794-.621,4.435-3.77,8.124-7.008a85.356,85.356,0,0,1,10.271-8.028c4.3-2.528,10.178-7.185,17.041-13.44,7.657-7.008,10.785-11.71,12.932-19.294.84-3.061,1.027-5.411,1.354-16.855.42-13.04.607-15.524,1.447-16.012.233-.133,1.634.444,3.128,1.286,9.477,5.456,19.562,8.294,24.651,7.008a23.582,23.582,0,0,0,5.136-2.484l3.175-2,5.182.089c6.77.089,8.077-.488,10.785-4.7,1.587-2.484,4.435-5.145,5.556-5.145.14,0,2.008-.8,4.155-1.774,3.595-1.6,4.108-2.04,7.47-5.944a94.769,94.769,0,0,1,7.1-7.319l3.455-3.061v-7.319l-3.968.222a15.7,15.7,0,0,0-7.8,2,28.727,28.727,0,0,0-7.377,5.012c-1.914,1.73-3.782,3.061-4.2,3.016-1.354-.266-2.288-3.371-4.155-13.883-2.568-14.637-4.2-19.383-7.75-22.355-4.248-3.548-6.863-3.016-14.146,2.972-8.87,7.319-11.578,8.827-19.422,10.734-6.536,1.552-9.571,3.016-12.139,5.855a8.414,8.414,0,0,1-3.081,2.351c-2.008.4-13.493-1.819-14.66-2.839a18.251,18.251,0,0,0-4.482-2.085c-7.05-2.4-12.092-5.189-25.211-13.927-4.482-2.972-10.178-6.7-12.7-8.25-2.941-1.819-4.949-3.415-5.742-4.524-2.661-3.815-6.536-16.323-8.59-27.589-1.867-10.29-2.148-14.149-2.148-27.722.047-13.262.047-13.351,1.961-25.948,2.708-17.565,3.128-23.2,2.755-37.48-.187-6.609-.514-13.528-.794-15.436a36.1,36.1,0,0,0-4.715-13.4c-1.867-2.972-3.315-4.48-13.539-13.839l-4.435-4.081-6.723-1.6c-10.831-2.573-17.368-4.391-27.032-7.54-15.033-4.879-17.274-5.544-21.056-6.254-9.711-1.73-14.846-5.012-17.368-11.089-1.447-3.5-1.821-8.738-1.494-19.916.187-5.855.467-12.508.7-14.77.374-4.746.28-4.613,6.49-9.536,5.276-4.214,7.05-6.92,8.73-13.262a32.878,32.878,0,0,0,1.307-9.27c.047-4.214,0-4.391-2.008-8.073l-2.008-3.815.747-3.1a52.759,52.759,0,0,0,.233-15.835c-1.261-6.742-4.389-13.573-9.711-21.069-6.163-8.694-6.349-8.916-15.874-15.569-5.089-3.593-7.143-4.613-10.645-5.367-2.661-.577-3.035-.887-3.875-3.1l-.467-1.2h-24.6ZM238.977-975.183c.467.355,1.447,3.282,2.661,7.9,2.148,8.383,3.221,11.577,5.509,16.855,2.895,6.653,3.455,9.448,3.688,19.428.28,10.29-.28,16.589-1.961,22.577-2.8,9.936-9.617,23.641-15.64,31.226C226-867.977,221.7-864.828,216.38-864.828c-6.116,0-11.111-2.351-32.074-15.258l-9.758-6.077-.327-2.75c-.187-1.508-.42-3.415-.607-4.214l-.233-1.464,2.708.222c1.541.133,5.229.355,8.264.488,5.136.266,5.462.222,5.462-.577,0-.532-.98-1.464-2.661-2.573l-2.614-1.73,3.455-.577a16.03,16.03,0,0,1,5.976-.089c5.556.976,9.291.222,18.068-3.77,3.968-1.818,5.789-2.972,7.983-5.012,8.077-7.54,12.7-18.984,14.846-36.682.56-4.835,1.634-23.331,1.634-29.186,0-1.286.187-1.641.84-1.641A3.73,3.73,0,0,1,238.977-975.183ZM401.354-916.5c3.081,4.524,11.2,12.153,16.06,15.214,8.31,5.19,21.709,10.423,35.2,13.661l1.541.4-7.1,5.766c-8.684,7.052-12.325,9.581-16.574,11.621-3.642,1.774-16.387,5.9-18.161,5.9-2.1,0-2.708-1.02-3.315-5.5a21.768,21.768,0,0,0-1.261-4.436c-.887-2.173-1.681-3.415-8.264-12.6-6.863-9.625-9.8-18.9-10.551-33.355-.327-6.077.14-10.778,1.354-13.528l.794-1.774L395-927.59C397.152-923.421,400-918.453,401.354-916.5ZM29.539-902.751c2.941,1.419,6.676,5.1,6.676,6.565,0,1.641-3.455,5.367-6.3,6.875-1.261.621-3.175-.444-5.136-3.016-1.727-2.307-3.968-6.343-3.968-7.23,0-1.02,4.062-4.3,5.276-4.3A11.344,11.344,0,0,1,29.539-902.751Z" fill="#fff"/>
  </g>
</svg>
