<svg xmlns="http://www.w3.org/2000/svg" width="431.346" height="493.168" viewBox="0 0 431.346 493.168">
  <g id="restaurant-cutlery" transform="translate(-30.912)">
    <path id="Path_1" data-name="Path 1" d="M87.935,0C63.423,0,30.912,66.013,30.912,116.4c0,33.214,11.124,51.245,27.742,59.689a36.57,36.57,0,0,1,19.795,36.137l-23.9,244.128a33.549,33.549,0,1,0,66.781,0l-23.9-244.128a36.588,36.588,0,0,1,19.794-36.137c16.618-8.445,27.742-26.475,27.742-59.689C144.958,66.013,113.752,0,87.935,0Z" fill="#fff"/>
    <path id="Path_2" data-name="Path 2" d="M306.734,0a8.178,8.178,0,0,0-8.174,8.188v100.72a8.219,8.219,0,1,1-16.438,0V8.188A8.179,8.179,0,0,0,273.948,0h-.1a8.175,8.175,0,0,0-8.169,8.188v100.72a8.221,8.221,0,0,1-16.443,0V8.188A8.175,8.175,0,0,0,241.07,0h-.1A8.175,8.175,0,0,0,232.8,8.188v100.72a8.219,8.219,0,0,1-16.439,0V8.188A8.179,8.179,0,0,0,208.189,0a7.745,7.745,0,0,0-7.755,7.736V116.4c0,33.214,11.129,51.245,27.743,59.689a36.562,36.562,0,0,1,19.794,36.137l-23.9,244.128a33.551,33.551,0,1,0,66.784,0l-23.9-244.128a36.588,36.588,0,0,1,19.794-36.137c16.613-8.445,27.738-26.475,27.738-59.689V7.736A7.736,7.736,0,0,0,306.734,0Z" fill="#fff"/>
    <path id="Path_3" data-name="Path 3" d="M440.218,232.891a5.6,5.6,0,0,0,5.6-5.6V9.825A9.826,9.826,0,0,0,435.983,0a10.551,10.551,0,0,0-10.145,7.642L391.784,126.375a121.025,121.025,0,0,0,16.633,101.906,10.666,10.666,0,0,0,8.782,4.61L395.316,456.359a33.551,33.551,0,1,0,66.784,0Z" fill="#fff"/>
  </g>
</svg>
